<svg xmlns="http://www.w3.org/2000/svg" viewBox="0 0 100 100">
  <rect width="100" height="100" fill="white"/>
  <path d="M10 10h20v20h-20zM40 10h20v20h-20zM70 10h20v20h-20zM10 40h20v20h-20zM70 40h20v20h-20zM10 70h20v20h-20zM40 70h20v20h-20zM70 70h20v20h-20z" fill="black"/>
  <rect x="15" y="15" width="10" height="10" fill="white"/>
  <rect x="75" y="15" width="10" height="10" fill="white"/>
  <rect x="15" y="75" width="10" height="10" fill="white"/>
  <rect x="17" y="17" width="6" height="6" fill="black"/>
  <rect x="77" y="17" width="6" height="6" fill="black"/>
  <rect x="17" y="77" width="6" height="6" fill="black"/>
  <path d="M40 40h20v20h-20z" fill="black"/>
</svg>
